<svg width="16" height="16" viewBox="0 0 16 16" fill="none" xmlns="http://www.w3.org/2000/svg">
<path d="M3.40426 11.8891C3.209 12.0844 3.209 12.401 3.40426 12.5962C3.59952 12.7915 3.9161 12.7915 4.11137 12.5962L3.75781 12.2427L3.40426 11.8891ZM12.7431 3.75739C12.7431 3.48125 12.5192 3.25739 12.2431 3.25739L7.74309 3.25739C7.46695 3.25739 7.24309 3.48125 7.24309 3.75739C7.24309 4.03354 7.46695 4.25739 7.74309 4.25739L11.7431 4.25739L11.7431 8.25739C11.7431 8.53354 11.967 8.75739 12.2431 8.75739C12.5192 8.75739 12.7431 8.53354 12.7431 8.25739L12.7431 3.75739ZM3.75781 12.2427L4.11137 12.5962L12.5966 4.11095L12.2431 3.75739L11.8895 3.40384L3.40426 11.8891L3.75781 12.2427Z" fill="var(--color-text-base)"/>
</svg>
