<svg width="18" height="16" viewBox="0 0 18 16" fill="none" xmlns="http://www.w3.org/2000/svg">
<rect x="2" width="1" height="1" fill="#333234"/>
<rect x="2" y="1" width="1" height="1" fill="#2A292C"/>
<rect x="2" y="2" width="1" height="1" fill="#28272A"/>
<rect y="5" width="1" height="1" fill="#201F20"/>
<rect x="1" y="5" width="1" height="1" fill="#201F20"/>
<rect y="6" width="1" height="1" fill="#1B1A1C"/>
<rect y="7" width="1" height="1" fill="#181719"/>
<rect y="8" width="1" height="1" fill="#131213"/>
<rect x="1" y="9" width="1" height="1" fill="#0F0F0F"/>
<rect x="1" y="8" width="1" height="1" fill="#131213"/>
<rect x="2" y="9" width="1" height="1" fill="#0F0F0F"/>
<rect x="2" y="10" width="1" height="1" fill="#0B0C0C"/>
<rect x="2" y="11" width="1" height="1" fill="#070707"/>
<rect x="3" y="11" width="1" height="1" fill="#070707"/>
<rect x="2" y="15" width="1" height="1" fill="black"/>
<rect x="3" y="15" width="1" height="1" fill="black"/>
<rect x="4" y="15" width="1" height="1" fill="black"/>
<rect x="13" y="15" width="1" height="1" fill="black"/>
<rect x="14" y="15" width="1" height="1" fill="black"/>
<rect x="15" y="15" width="1" height="1" fill="black"/>
<rect x="3" y="12" width="1" height="1" fill="#040404"/>
<rect x="4" y="12" width="1" height="1" fill="#040404"/>
<rect x="15" y="10" width="1" height="1" fill="#0B0C0C"/>
<rect x="13" y="12" width="1" height="1" fill="#040404"/>
<rect x="14" y="11" width="1" height="1" fill="#070707"/>
<rect x="14" y="12" width="1" height="1" fill="#040404"/>
<rect x="2" y="13" width="1" height="1" fill="black"/>
<rect x="3" y="13" width="1" height="1" fill="black"/>
<rect x="4" y="13" width="1" height="1" fill="black"/>
<rect x="5" y="13" width="1" height="1" fill="black"/>
<rect x="6" y="13" width="1" height="1" fill="black"/>
<rect x="8" y="13" width="1" height="1" fill="black"/>
<rect x="7" y="13" width="1" height="1" fill="black"/>
<rect x="9" y="13" width="1" height="1" fill="black"/>
<rect x="10" y="13" width="1" height="1" fill="black"/>
<rect x="11" y="13" width="1" height="1" fill="black"/>
<rect x="12" y="13" width="1" height="1" fill="black"/>
<rect x="13" y="13" width="1" height="1" fill="black"/>
<rect x="14" y="13" width="1" height="1" fill="black"/>
<rect x="15" y="13" width="1" height="1" fill="black"/>
<rect x="2" y="14" width="1" height="1" fill="black"/>
<rect x="4" y="14" width="1" height="1" fill="black"/>
<rect x="13" y="14" width="1" height="1" fill="black"/>
<rect x="15" y="14" width="1" height="1" fill="black"/>
<rect x="2" y="3" width="1" height="1" fill="#282829"/>
<rect x="6" y="3" width="1" height="1" fill="#282829"/>
<rect x="7" y="3" width="1" height="1" fill="#282829"/>
<rect x="8" y="3" width="1" height="1" fill="#282829"/>
<rect x="9" y="3" width="1" height="1" fill="#282829"/>
<rect x="10" y="3" width="1" height="1" fill="#282829"/>
<rect x="11" y="3" width="1" height="1" fill="#282829"/>
<rect x="2" y="4" width="1" height="1" fill="#232323"/>
<rect x="2" y="5" width="1" height="1" fill="#201F20"/>
<rect x="2" y="6" width="1" height="1" fill="#1B1A1C"/>
<rect x="2" y="7" width="1" height="1" fill="#181719"/>
<rect x="11" y="9" width="1" height="1" fill="#131213"/>
<rect x="11" y="8" width="1" height="1" fill="#131213"/>
<rect x="9" y="9" width="1" height="1" fill="#0F0F0F"/>
<rect x="11" y="9" width="1" height="1" fill="#0F0F0F"/>
<rect x="12" y="8" width="1" height="1" fill="#181719"/>
<rect x="12" y="7" width="1" height="1" fill="#181719"/>
<rect x="11" y="7" width="1" height="1" fill="#181719"/>
<rect x="12" y="9" width="1" height="1" fill="#131213"/>
<rect x="12" y="8" width="1" height="1" fill="#131213"/>
<rect x="12" y="9" width="1" height="1" fill="#0F0F0F"/>
<rect x="16" y="8" width="1" height="1" fill="#131213"/>
<rect x="15" y="3" width="1" height="1" fill="#282829"/>
<rect x="15" y="4" width="1" height="1" fill="#232323"/>
<rect x="15" y="5" width="1" height="1" fill="#201F20"/>
<rect x="16" y="5" width="1" height="1" fill="#201F20"/>
<rect x="17" y="5" width="1" height="1" fill="#201F20"/>
<rect x="15" y="6" width="1" height="1" fill="#1B1A1C"/>
<rect x="15" y="7" width="1" height="1" fill="#181719"/>
<rect x="17" y="5" width="1" height="1" fill="#201F20"/>
<rect x="17" y="6" width="1" height="1" fill="#1B1A1C"/>
<rect x="17" y="7" width="1" height="1" fill="#181719"/>
<rect x="17" y="8" width="1" height="1" fill="#131213"/>
<rect x="15" y="9" width="1" height="1" fill="#0F0F0F"/>
<rect x="16" y="9" width="1" height="1" fill="#0F0F0F"/>
<rect x="5" y="2" width="1" height="1" fill="#28272A"/>
<rect x="6" y="2" width="1" height="1" fill="#28272A"/>
<rect x="11" y="2" width="1" height="1" fill="#28272A"/>
<rect x="12" y="2" width="1" height="1" fill="#28272A"/>
<rect x="15" y="2" width="1" height="1" fill="#28272A"/>
<rect x="4" y="1" width="1" height="1" fill="#2A292C"/>
<rect x="5" y="1" width="1" height="1" fill="#2A292C"/>
<rect x="12" y="1" width="1" height="1" fill="#2A292C"/>
<rect x="13" y="1" width="1" height="1" fill="#2A292C"/>
<rect x="15" y="1" width="1" height="1" fill="#2A292C"/>
<rect x="3" width="1" height="1" fill="#333234"/>
<rect x="4" width="1" height="1" fill="#333234"/>
<rect x="13" width="1" height="1" fill="#333234"/>
<rect x="14" width="1" height="1" fill="#333234"/>
<rect x="15" width="1" height="1" fill="#333234"/>
<rect x="3" y="1" width="1" height="1" fill="#9D7DCD"/>
<rect x="5" y="3" width="1" height="1" fill="#9373C2"/>
<rect x="4" y="3" width="1" height="1" fill="#9373C2"/>
<rect x="3" y="3" width="1" height="1" fill="#9373C2"/>
<rect x="12" y="3" width="1" height="1" fill="#9373C2"/>
<rect x="13" y="3" width="1" height="1" fill="#9373C2"/>
<rect x="14" y="3" width="1" height="1" fill="#9373C2"/>
<rect x="14" y="1" width="1" height="1" fill="#9D7DCD"/>
<rect x="14" y="2" width="1" height="1" fill="#9777C6"/>
<rect x="13" y="2" width="1" height="1" fill="#9777C6"/>
<rect x="3" y="2" width="1" height="1" fill="#9777C6"/>
<rect x="4" y="2" width="1" height="1" fill="#9777C6"/>
<rect x="1" y="6" width="1" height="1" fill="#8766B6"/>
<rect x="1" y="7" width="1" height="1" fill="#8463B2"/>
<rect x="2" y="8" width="1" height="1" fill="#805FAF"/>
<rect x="4" y="9" width="1" height="1" fill="#7D5CAB"/>
<rect x="3" y="9" width="1" height="1" fill="#7D5CAB"/>
<rect x="4" y="10" width="1" height="1" fill="#7C59A9"/>
<rect x="3" y="10" width="1" height="1" fill="#7C59A9"/>
<rect x="3" y="8" width="1" height="1" fill="#805FAF"/>
<rect x="7" y="9" width="1" height="1" fill="#7D5CAB"/>
<rect x="5" y="10" width="1" height="1" fill="#7C59A9"/>
<rect x="5" y="4" width="1" height="1" fill="#9070BF"/>
<rect x="4" y="4" width="1" height="1" fill="#9070BF"/>
<rect x="3" y="4" width="1" height="1" fill="#9070BF"/>
<rect x="5" y="5" width="1" height="1" fill="#8B6BBB"/>
<rect x="7" y="6" width="1" height="1" fill="#8766B6"/>
<rect x="7" y="7" width="1" height="1" fill="#8463B2"/>
<rect x="7" y="8" width="1" height="1" fill="#805FAF"/>
<rect x="7" y="10" width="1" height="1" fill="#7C59A9"/>
<rect x="7" y="11" width="1" height="1" fill="#7957A7"/>
<rect x="8" y="11" width="1" height="1" fill="#7957A7"/>
<rect x="9" y="11" width="1" height="1" fill="#7957A7"/>
<rect x="6" y="12" width="1" height="1" fill="#7856A7"/>
<rect x="8" y="12" width="1" height="1" fill="#7856A7"/>
<rect x="10" y="12" width="1" height="1" fill="#7856A7"/>
<rect x="4" y="5" width="1" height="1" fill="#8B6BBB"/>
<rect x="3" y="5" width="1" height="1" fill="#8B6BBB"/>
<rect x="4" y="6" width="1" height="1" fill="#8766B6"/>
<rect x="6" y="6" width="1" height="1" fill="#8766B6"/>
<rect x="3" y="6" width="1" height="1" fill="#8766B6"/>
<rect x="5" y="6" width="1" height="1" fill="#8766B6"/>
<rect x="4" y="7" width="1" height="1" fill="#8463B2"/>
<rect x="3" y="7" width="1" height="1" fill="#8463B2"/>
<rect x="4" y="8" width="1" height="1" fill="#805FAF"/>
<rect x="6" y="10" width="1" height="1" fill="#7C59A9"/>
<rect x="4" y="11" width="1" height="1" fill="#7957A7"/>
<rect x="5" y="11" width="1" height="1" fill="#7957A7"/>
<rect x="6" y="11" width="1" height="1" fill="#7957A7"/>
<rect x="5" y="12" width="1" height="1" fill="#7856A7"/>
<rect x="7" y="12" width="1" height="1" fill="#7856A7"/>
<rect x="9" y="12" width="1" height="1" fill="#7856A7"/>
<rect x="3" y="14" width="1" height="1" fill="#7856A6"/>
<rect x="6" y="4" width="1" height="1" fill="#9070BF"/>
<rect x="6" y="5" width="1" height="1" fill="#8B6BBB"/>
<rect x="7" y="4" width="1" height="1" fill="#9070BF"/>
<rect x="7" y="5" width="1" height="1" fill="#8B6BBB"/>
<rect x="8" y="4" width="1" height="1" fill="#9070BF"/>
<rect x="8" y="5" width="1" height="1" fill="#8B6BBB"/>
<rect x="8" y="6" width="1" height="1" fill="#8766B6"/>
<rect x="8" y="7" width="1" height="1" fill="#8463B2"/>
<rect x="8" y="8" width="1" height="1" fill="#805FAF"/>
<rect x="8" y="9" width="1" height="1" fill="#7D5CAB"/>
<rect x="8" y="10" width="1" height="1" fill="#7C59A9"/>
<rect x="9" y="4" width="1" height="1" fill="#9070BF"/>
<rect x="9" y="5" width="1" height="1" fill="#8B6BBB"/>
<rect x="9" y="6" width="1" height="1" fill="#8766B6"/>
<rect x="11" y="6" width="1" height="1" fill="#8766B6"/>
<rect x="10" y="6" width="1" height="1" fill="#8766B6"/>
<rect x="12" y="6" width="1" height="1" fill="#8766B6"/>
<rect x="9" y="7" width="1" height="1" fill="#8463B2"/>
<rect x="9" y="8" width="1" height="1" fill="#805FAF"/>
<rect x="9" y="9" width="1" height="1" fill="#7D5CAB"/>
<rect x="9" y="10" width="1" height="1" fill="#7C59A9"/>
<rect x="10" y="4" width="1" height="1" fill="#9070BF"/>
<rect x="10" y="5" width="1" height="1" fill="#8B6BBB"/>
<rect x="11" y="4" width="1" height="1" fill="#9070BF"/>
<rect x="11" y="5" width="1" height="1" fill="#8B6BBB"/>
<rect x="12" y="4" width="1" height="1" fill="#9070BF"/>
<rect x="13" y="4" width="1" height="1" fill="#9070BF"/>
<rect x="14" y="4" width="1" height="1" fill="#9070BF"/>
<rect x="12" y="5" width="1" height="1" fill="#8B6BBB"/>
<rect x="10" y="7" width="1" height="1" fill="#8463B2"/>
<rect x="10" y="8" width="1" height="1" fill="#805FAF"/>
<rect x="10" y="10" width="1" height="1" fill="#7C59A9"/>
<rect x="10" y="11" width="1" height="1" fill="#7957A7"/>
<rect x="11" y="12" width="1" height="1" fill="#7856A7"/>
<rect x="13" y="5" width="1" height="1" fill="#8B6BBB"/>
<rect x="14" y="5" width="1" height="1" fill="#8B6BBB"/>
<rect x="13" y="6" width="1" height="1" fill="#8766B6"/>
<rect x="14" y="6" width="1" height="1" fill="#8766B6"/>
<rect x="13" y="7" width="1" height="1" fill="#8463B2"/>
<rect x="14" y="7" width="1" height="1" fill="#8463B2"/>
<rect x="13" y="8" width="1" height="1" fill="#805FAF"/>
<rect x="11" y="10" width="1" height="1" fill="#7C59A9"/>
<rect x="11" y="11" width="1" height="1" fill="#7957A7"/>
<rect x="12" y="11" width="1" height="1" fill="#7957A7"/>
<rect x="13" y="11" width="1" height="1" fill="#7957A7"/>
<rect x="12" y="12" width="1" height="1" fill="#7856A7"/>
<rect x="14" y="14" width="1" height="1" fill="#7856A6"/>
<rect x="16" y="6" width="1" height="1" fill="#8766B6"/>
<rect x="16" y="7" width="1" height="1" fill="#8463B2"/>
<rect x="14" y="8" width="1" height="1" fill="#805FAF"/>
<rect x="10" y="9" width="1" height="1" fill="#7D5CAB"/>
<rect x="12" y="10" width="1" height="1" fill="#7C59A9"/>
<rect x="15" y="8" width="1" height="1" fill="#805FAF"/>
<rect x="13" y="9" width="1" height="1" fill="#7D5CAB"/>
<rect x="14" y="9" width="1" height="1" fill="#7D5CAB"/>
<rect x="13" y="10" width="1" height="1" fill="#7C59A9"/>
<rect x="14" y="10" width="1" height="1" fill="#7C59A9"/>
<rect x="5" y="8" width="1" height="1" fill="#131213"/>
<rect x="5" y="9" width="1" height="1" fill="#0F0F0F"/>
<rect x="6" y="8" width="1" height="1" fill="#131213"/>
<rect x="6" y="9" width="1" height="1" fill="#0F0F0F"/>
<rect x="6" y="7" width="1" height="1" fill="#181719"/>
<rect x="5" y="7" width="1" height="1" fill="#181719"/>
</svg>
